<?xml version="1.0" encoding="UTF-8" standalone="no"?>
<!-- Created with Inkscape (http://www.inkscape.org/) -->

<svg
   version="1.1"
   id="svg53"
   width="1000"
   height="1000"
   viewBox="0 0 1000 1000"
   sodipodi:docname="kale-logo.svg"
   inkscape:export-filename="kale-logo.png"
   inkscape:export-xdpi="48"
   inkscape:export-ydpi="48"
   inkscape:version="1.2 (dc2aeda, 2022-05-15)"
   xmlns:inkscape="http://www.inkscape.org/namespaces/inkscape"
   xmlns:sodipodi="http://sodipodi.sourceforge.net/DTD/sodipodi-0.dtd"
   xmlns="http://www.w3.org/2000/svg"
   xmlns:svg="http://www.w3.org/2000/svg">
  <sodipodi:namedview
     id="namedview248"
     pagecolor="#ffffff"
     bordercolor="#666666"
     borderopacity="1.0"
     inkscape:showpageshadow="2"
     inkscape:pageopacity="0.0"
     inkscape:pagecheckerboard="0"
     inkscape:deskcolor="#d1d1d1"
     showgrid="false"
     inkscape:zoom="0.33459358"
     inkscape:cx="-708.32201"
     inkscape:cy="531.98869"
     inkscape:window-width="1507"
     inkscape:window-height="684"
     inkscape:window-x="0"
     inkscape:window-y="25"
     inkscape:window-maximized="0"
     inkscape:current-layer="svg53" />
  <defs
     id="defs57" />
  <g
     id="g949"
     transform="translate(-1104.9321,-82.796631)">
    <circle
       style="fill:#008000;stroke-width:1.29062"
       id="path937"
       cx="1604.9321"
       cy="582.79663"
       r="500" />
    <g
       id="g942">
      <g
         id="g868"
         transform="translate(1237.322,233.11865)"
         style="fill:#ffffff">
        <g
           id="g59"
           transform="translate(-2.9886978,5.977401)"
           style="fill:#ffffff">
          <path
             style="fill:#ffffff;stroke:none;stroke-width:0.666667"
             d="m 207.49032,210.03453 h 1.33333 c 3.862,8.55667 7.21467,18.48534 14.8,24.526 10.59467,8.43733 26.63267,3.56267 30.06933,-9.86 3.388,-13.23266 -7.148,-26.416 -10.13933,-38.666 -2.01,-8.232 0.698,-17.23733 5.44933,-23.992 2.11334,-3.004 4.65,-6.26466 7.89734,-8.106 5.91533,-3.35533 12.208,2.514 14.95,7.46267 2.87533,5.19 2.97133,11.1 6.89866,15.854 8.70934,10.54267 24.87,10.35867 33.13534,-0.65667 7.39666,-9.85666 3.7,-25.05066 4.414,-36.56199 0.93066,-15.02 6.95066,-29.898 14.596,-42.666673 3.19066,-5.32867 8.23733,-16.322 14.84266,-17.876666 11.62267,-2.735334 10.26134,10.613996 12.684,17.207336 3.21534,8.752003 11.792,14.315333 21.06934,13.769333 15.60805,-0.91933 15.79065,-13.634673 21.65135,-24.302003 6.1593,-11.211333 22.8633,-26.806666 36.3487,-22.193332 6.018,2.058666 13.7513,5.049333 16.24,11.453333 5.282,13.587332 -3.8407,29.331332 13.1026,37.816002 2.47,1.23733 5.2347,2.008 7.9907,2.20733 15.2707,1.10334 20.26,-12.70533 26.7713,-23.414663 3.7887,-6.23067 8.7507,-12.025336 14.048,-17.023336 7.8407,-7.398 16.7894,-13.25 26.5114,-5.854667 9.4326,7.175333 20.35,22.074663 15.6,34.878006 -4.3787,11.80333 -15.7674,18.42866 -10.5454,32.66533 3.5967,9.80733 12.0754,11.54133 19.3054,17.55533 6.118,5.09 9.4226,16.68467 6.82,24.31267 -2.5494,7.47266 -12.986,6.18133 -19.1774,7.968 -11.7893,3.40266 -19,14.09333 -18.5513,26.16533 0.6187,16.61667 14.52,20.258 24.104,30.81066 9.1327,10.05534 15.0527,25.262 19.7807,37.856 -19.9167,6.27334 -57.554,-6.91866 -61.576,23.33334 -0.412,3.09933 -0.2887,6.28666 0.426,9.33333 2.024,8.624 8.7273,15.36467 17.1513,17.88667 11.5213,3.44933 27.3053,3.10733 30.7647,18.11399 1.3673,5.93134 0.5553,18.02 -6.4607,20.382 -3.572,1.202 -7.9653,-0.696 -11.6387,-0.76466 -9.0806,-0.16934 -17.4253,4.98333 -21.54,13.06 -3.9653,7.78533 -3.3886,17.51333 1.756,24.616 2.586,3.57066 6.654,6.25866 8.5607,10.286 2.5933,5.47866 1.5767,14.56666 0.7727,20.42 -1.1814,8.60133 -5.0994,20.80533 -12.4347,26.05799 -6.742,4.82734 -15.8893,4.48067 -23.7813,4.64067 -15.534,0.31467 -32.8334,3.022 -48,-1.33 -11.9407,-3.426 -22.144,-12.602 -35.3327,-8.934 -22.3733,6.224 -19.818,31.36867 -6.0007,44.232 -15.408,3.28467 -29.39865,-1.496 -43.99999,-6 -7.84866,-2.42133 -16.07733,-4.43733 -23.33333,-8.38933 -13.19067,-7.18334 -20.86333,-20.84334 -38,-16.506 -17.95333,4.544 -26.18733,26.38266 -15.55867,41.53066 8.81,12.55534 28.14134,20.73267 42.22534,25.57067 31.81333,10.928 73.49205,26.14133 106.00005,9.01533 6.618,-3.48667 12.854,-8.71533 16.6353,-15.228 2.9007,-4.996 4.4007,-13.08066 10.8233,-14.68866 6.3714,-1.59467 14.6267,0.0287 21.208,0.0287 23.0007,6.7e-4 48.3687,1.426 67.1034,-14.41 15.7146,-13.28266 24.3353,-37.48266 26.57,-57.59 0.9253,-8.32866 -1.3287,-17.74133 0.8813,-25.83666 1.5827,-5.79533 8.9773,-9.72133 12.716,-14.184 6.564,-7.83467 10.9673,-17.37 13.2507,-27.31267 2.5906,-11.28133 2.9713,-23.916 1.1173,-35.33333 -0.802,-4.936 -5.6053,-12.06133 -4.074,-16.93533 1.2993,-4.13667 6.9667,-6.696 9.6673,-9.934 4.6574,-5.584 7.16,-13.908 7.2807,-21.13067 0.2713,-16.21533 -7.1393,-33.17533 -12.8753,-48 -2.124,-5.48866 -7.286,-12.70399 -7.2874,-18.61933 -6e-4,-5.04933 5.7814,-9.188 8.0487,-13.39066 3.6287,-6.72467 5.2087,-15.29134 7.1467,-22.65667 6.7526,-25.66667 -3.3574,-47.27133 -14.696,-69.33333 -2.3447,-4.562 -0.726,-9.18733 -0.3694,-14 0.4634,-6.25667 -0.1586,-12.519333 -1.332,-18.666673 -4.3593,-22.844036 -15.0973,-39.266769 -33.148,-53.726568 -9.1886,-7.360733 -17.3813,-13.141733 -29.3333,-14.358333 -12.818,-1.3046 -25.5813,2.401067 -36.6667,8.711266 -5.162,2.938334 -11.872,10.915867 -18,10.944067 -5.706,0.02627 -12.9026,-6.550667 -18,-9.013067 -13.042,-6.300666 -25.326,-11.124933 -40,-10.459466 -11.55,0.523667 -21.9653,5.282733 -31.3333,11.8518 -4.90002,3.436266 -10.91869,11.243399 -17.33335,11.151066 -15.84667,-0.227934 -29.06334,-15.0218 -46,-9.9342 -22.06934,6.629533 -38.032,37.878066 -46.656,57.500065 -2.67267,6.082669 -3.594,16.254673 -8.06667,21.138673 -3.55333,3.88 -11.536,0.29333 -15.944,-0.098 -7.57933,-0.672 -15.62,1.882 -22,5.896 -11.648,7.32933 -20.636,19.256 -26.18867,31.72999 -2.408,5.40867 -2.966,14.75467 -7.00533,19.00667 -3.05,3.21067 -9.428,3.248 -13.47267,4.50933 -6.57,2.04934 -12.34733,5.91467 -16.70933,11.274 -9.41933,11.57267 -5.57267,28.822 -2.01533,41.87667 1.28666,4.72067 5.10133,11.99267 3.534,16.88933 -1.59667,4.98933 -11.494,7.55333 -15.476,10.55667 -10.14867,7.654 -21.264,18.554 -24.652,31.22066 -5.428,20.29334 2.07733,41.80334 14.41866,58 5.89134,7.73133 15.50934,15.52467 19.06667,24.66667 2.45,6.296 -3.39,15.84333 -3.75,22.66666 -1.19467,22.61534 9.472,50.05 33.58333,55.616 10.48867,2.42067 23.35067,0.118 31.92067,-6.552 7.97067,-6.204 11.23733,-17.07533 4.55933,-25.52466 -7.5,-9.48934 -25.75866,-6.414 -31.60733,-16.58267 -3.01333,-5.23867 5.22267,-8.00933 8.22267,-10.496 5.20866,-4.31733 7.76666,-11.23133 5.72466,-17.79333 -2.92333,-9.396 -11.04133,-11.07534 -17.572,-16.87334 -4.43333,-3.936 -6.99666,-10.24666 -10.25666,-15.12733 -7.266,-10.87866 -25.606,-27.18 -19.10667,-42.18133 1.03667,-2.39267 2.71667,-4.50533 4.46267,-6.41667 15.37133,-16.83066 29.694,11.616 42.986,18.08 10.27066,4.99534 25.87533,0.91334 29.464,-10.82733 5.14666,-16.83733 -14.79534,-24.966 -23.116,-35.53067 -10.266,-13.034 -16.952,-36.06733 -18.348,-52.45733 m 140,116 h -1.33334 c -2.62533,-13.73533 -2.27466,-30.61133 -11.43066,-41.96 -5.198,-6.44267 -12.99734,-11.11533 -21.16267,-7.04733 -12.916,6.43466 -6.49867,19.19733 -4.48333,29.674 2.81066,14.608 3.23866,28.92733 7.55,43.33333 2.68466,8.972 7.96133,21.04666 3.99266,30.41 -2.59933,6.13333 -11.72266,9.92266 -16.46466,14.37933 -11.732,11.02667 -22.67,23.456 -33.784,35.12733 -9.17,9.62934 -16.626,20.576 -25.18667,30.70267 -8.94933,10.58733 -19.732,19.51533 -28.786,30.04733 -9.112,10.59867 -16.29067,22.604 -25.24067,33.33467 -7.94533,9.52533 -17.81466,16.998 -25.63,26.66533 -21.674,26.80866 -44.93533,51.27133 -64.09199,80 -6.367342,9.54866 -19.282602,21.38466 -13.120002,33.89999 4.20066,8.52667 12.322002,8.49334 20.504662,9.4 5.40734,0.6 10.46267,3.01334 16,2.2 16.17867,-2.38 26.01,-19.814 34.21267,-32.16666 5.79066,-8.72067 9.61866,-18.584 15.40266,-27.246 7.74734,-11.60267 18.61067,-21.34667 26.78667,-32.754 6.67333,-9.31067 11.27333,-19.964 17.95333,-29.19667 9.246,-12.77933 21.11,-23.88133 31.03867,-36.14666 4.38667,-5.41867 7.30933,-11.79067 11.52933,-17.32333 10.00334,-13.114 21.31,-26.304 32.31,-38.61867 15.67867,-17.55333 34.65934,-32.372 51.00267,-49.19533 6.71933,-6.91667 4.49067,-18.19133 11.48333,-24.72 4.41534,-4.12267 11.466,-0.36933 16.46734,-4.046 4.946,-3.63733 3.43133,-9.33667 6.62666,-13.71333 4.016,-5.502 21.03999,-11.35067 27.71669,-11.54267 5.1233,-0.14733 7.8067,4.85267 10.428,8.47133 6.3313,8.74134 24.2133,19.10734 31.2287,5.28134 4.394,-8.65867 -4.094,-18.71334 -9.024,-25.24867 -3.7867,-5.01867 -8.0707,-9.80533 -13.1667,-13.53266 -19.5427,-14.29467 -44.23469,3.876 -62.66269,10.86466 2.36134,-4.5 6.10934,-7.098 9.25667,-10.944 2.28533,-2.79333 3.34933,-6.33066 5.65333,-9.096 5.78134,-6.94133 12.53134,-12.43266 17.85269,-19.96 12.1487,-17.184 20.2613,-40.292 36.5707,-54 -0.498,3.502 -1.4914,7.11267 -1.2587,10.66734 0.182,2.776 1.1487,5.48466 2.7233,7.77533 14.288,20.77867 31.0907,-10.85 43.2127,-15.27533 11.4287,-4.17267 23.44,6.39666 33.3707,-4.24667 6.9646,-7.464 5.222,-19.298 -2.8354,-25.15 -7.4673,-5.42333 -16.9493,-6.52466 -25.8793,-6.41866 -8.58,0.10133 -16.3967,2.736 -24.6667,4.648 10.6867,-17.714 29.1574,-28.074 39.248,-46 3.0307,-5.384 7.48,-12.90534 6.8767,-19.31134 -0.7373,-7.82466 -9.7827,-11.198 -15.7767,-6.49533 -6.506,5.10467 -8.936,14.28 -14.738,20.18333 -4.3206,4.396 -10.072,6.67734 -14.8773,10.42267 -5.7313,4.46733 -10.59,10.43733 -15.3993,15.86733 -3.9114,-15.86933 -1.7787,-32.91666 -14.416,-45.71466 -8.4554,-8.564 -29.2754,-5.99134 -31.018,7.72266 -1.406,11.06534 9.836,12.126 13.6053,20.17334 4.9327,10.532 2.9133,26.526 2.1227,37.81866 -0.2827,4.038 0.656,8.84134 -0.8054,12.66667 -3.4766,9.10133 -13.5706,17.09533 -18.9773,25.33333 -9.52735,14.518 -14.25335,31.714 -23.83402,46 -6.336,9.44867 -16.72733,14.892 -22.67733,24 m 87.33335,-77.33333 -0.6667,0.66666 z"
             id="path221" />
        </g>
      </g>
    </g>
  </g>
</svg>
